<svg width="161" height="156" viewBox="0 0 161 156" fill="none" xmlns="http://www.w3.org/2000/svg">
<ellipse cx="80.5" cy="78" rx="80.5" ry="78" fill="#FF2F59"/>
<g clip-path="url(#clip0_6_326)">
<path d="M80.5 78C88.836 78 95.5938 71.4522 95.5938 63.375C95.5938 55.2978 88.836 48.75 80.5 48.75C72.164 48.75 65.4062 55.2978 65.4062 63.375C65.4062 71.4522 72.164 78 80.5 78Z" fill="#69A9FF"/>
<path d="M80.5 82.875C68.0017 82.8885 57.8733 92.7024 57.8594 104.813C57.8594 106.159 58.9856 107.25 60.375 107.25H100.625C102.014 107.25 103.141 106.159 103.141 104.813C103.127 92.7024 92.9983 82.8884 80.5 82.875Z" fill="#69A9FF"/>
</g>
<defs>
<clipPath id="clip0_6_326">
<rect width="60.375" height="58.5" fill="white" transform="translate(50.3125 48.75)"/>
</clipPath>
</defs>
</svg>
