<svg width="18" height="18" viewBox="0 0 18 18" fill="none" xmlns="http://www.w3.org/2000/svg">
<g clip-path="url(#clip0_6_316)">
<path d="M1.14441e-05 4.68001C1.14441e-05 10.41 7.59751 18 13.32 18C14.5725 18 15.7425 17.5275 16.605 16.665L17.355 15.8025C18.225 14.9325 18.225 13.4625 17.3175 12.555C17.295 12.5325 15.4875 11.145 15.4875 11.145C14.5875 10.29 13.17 10.29 12.2775 11.145L11.1825 12.0225C8.78251 11.0025 7.08001 9.29251 5.98501 6.81001L6.85501 5.71501C7.71751 4.82251 7.71751 3.39751 6.85501 2.50501C6.85501 2.50501 5.46751 0.69751 5.44501 0.67501C4.53751 -0.23249 3.06751 -0.23249 2.16001 0.67501L1.37251 1.35751C0.472511 2.25001 1.14441e-05 3.42001 1.14441e-05 4.67251V4.68001Z" fill="#1E2940"/>
</g>
<defs>
<clipPath id="clip0_6_316">
<rect width="18" height="18" fill="white" transform="matrix(-1 0 0 1 18 0)"/>
</clipPath>
</defs>
</svg>
