<svg width="16" height="16" viewBox="0 0 16 16" fill="none" xmlns="http://www.w3.org/2000/svg"><path fillRule="evenodd" clipRule="evenodd" d="M9.2.87c0-.36.3-.66.68-.66h3a2.17 2.17 0 0 1 2.16 2.17v10.5a2.17 2.17 0 0 1-2.16 2.16h-3a.67.67 0 0 1 0-1.33h3a.83.83 0 0 0 .83-.84V2.38a.83.83 0 0 0-.83-.83h-3A.67.67 0 0 1 9.2.87ZM5.66 3.4a.67.67 0 0 1 .95 0l3.74 3.75a.66.66 0 0 1 0 .95L6.6 11.85a.67.67 0 1 1-.95-.95l2.62-2.6H.87a.67.67 0 0 1 0-1.34h7.4L5.65 4.35a.67.67 0 0 1 0-.95Z" fill="#2D3440"/></svg>